<mxfile host="65bd71144e">
    <diagram id="OrhgcbcHeUzNQYfjl076" name="第 1 页">
        <mxGraphModel dx="560.5" dy="741.65" grid="0" gridSize="10" guides="1" tooltips="1" connect="1" arrows="1" fold="1" page="1" pageScale="1" pageWidth="827" pageHeight="1169" background="#FFFFFF" math="0" shadow="0">
            <root>
                <mxCell id="0"/>
                <mxCell id="1" parent="0"/>
                <mxCell id="2" value="结构体 tcp_server" style="swimlane;fontStyle=0;childLayout=stackLayout;horizontal=1;startSize=30;horizontalStack=0;resizeParent=1;resizeParentMax=0;resizeLast=0;collapsible=1;marginBottom=0;fontSize=18;strokeWidth=2;fillColor=#f5f5f5;strokeColor=#666666;fontColor=#333333;" parent="1" vertex="1">
                    <mxGeometry x="-510" y="-185" width="496" height="420" as="geometry">
                        <mxRectangle x="-474" y="-65" width="170" height="30" as="alternateBounds"/>
                    </mxGeometry>
                </mxCell>
                <mxCell id="3" value="listen_fd（监听客户端连接文件描述符）" style="text;strokeColor=#666666;fillColor=#f5f5f5;align=left;verticalAlign=middle;spacingLeft=4;spacingRight=4;overflow=hidden;points=[[0,0.5],[1,0.5]];portConstraint=eastwest;rotatable=0;fontSize=18;fontColor=#333333;" parent="2" vertex="1">
                    <mxGeometry y="30" width="496" height="30" as="geometry"/>
                </mxCell>
                <mxCell id="4" value="msg_queue_id（消息队列ID）" style="text;strokeColor=#666666;fillColor=#f5f5f5;align=left;verticalAlign=middle;spacingLeft=4;spacingRight=4;overflow=hidden;points=[[0,0.5],[1,0.5]];portConstraint=eastwest;rotatable=0;fontSize=18;fontColor=#333333;" parent="2" vertex="1">
                    <mxGeometry y="60" width="496" height="30" as="geometry"/>
                </mxCell>
                <mxCell id="5" value="add_position（下一次添加客户端表位置）" style="text;strokeColor=#666666;fillColor=#f5f5f5;align=left;verticalAlign=middle;spacingLeft=4;spacingRight=4;overflow=hidden;points=[[0,0.5],[1,0.5]];portConstraint=eastwest;rotatable=0;fontSize=18;fontColor=#333333;" parent="2" vertex="1">
                    <mxGeometry y="90" width="496" height="30" as="geometry"/>
                </mxCell>
                <mxCell id="6" value="mng_flag（管理连接线程标志）" style="text;strokeColor=#666666;fillColor=#f5f5f5;align=left;verticalAlign=middle;spacingLeft=4;spacingRight=4;overflow=hidden;points=[[0,0.5],[1,0.5]];portConstraint=eastwest;rotatable=0;fontSize=18;fontColor=#333333;" parent="2" vertex="1">
                    <mxGeometry y="120" width="496" height="30" as="geometry"/>
                </mxCell>
                <mxCell id="7" value="keep_flag（保持心跳线程标志）" style="text;strokeColor=#666666;fillColor=#f5f5f5;align=left;verticalAlign=middle;spacingLeft=4;spacingRight=4;overflow=hidden;points=[[0,0.5],[1,0.5]];portConstraint=eastwest;rotatable=0;fontSize=18;fontColor=#333333;" parent="2" vertex="1">
                    <mxGeometry y="150" width="496" height="30" as="geometry"/>
                </mxCell>
                <mxCell id="8" value="mng_tid（管理连接线程ID）" style="text;strokeColor=#666666;fillColor=#f5f5f5;align=left;verticalAlign=middle;spacingLeft=4;spacingRight=4;overflow=hidden;points=[[0,0.5],[1,0.5]];portConstraint=eastwest;rotatable=0;fontSize=18;fontColor=#333333;" parent="2" vertex="1">
                    <mxGeometry y="180" width="496" height="30" as="geometry"/>
                </mxCell>
                <mxCell id="9" value="keep_tid（保持心跳线程ID）" style="text;strokeColor=#666666;fillColor=#f5f5f5;align=left;verticalAlign=middle;spacingLeft=4;spacingRight=4;overflow=hidden;points=[[0,0.5],[1,0.5]];portConstraint=eastwest;rotatable=0;fontSize=18;fontColor=#333333;" parent="2" vertex="1">
                    <mxGeometry y="210" width="496" height="30" as="geometry"/>
                </mxCell>
                <mxCell id="10" value="serve_addr（存放服务器IP和port）" style="text;strokeColor=#666666;fillColor=#f5f5f5;align=left;verticalAlign=middle;spacingLeft=4;spacingRight=4;overflow=hidden;points=[[0,0.5],[1,0.5]];portConstraint=eastwest;rotatable=0;fontSize=18;fontColor=#333333;" parent="2" vertex="1">
                    <mxGeometry y="240" width="496" height="30" as="geometry"/>
                </mxCell>
                <mxCell id="11" value="mng_client_table[TCP_MAX_CLIENT]（存放客户端信息表）" style="text;strokeColor=#666666;fillColor=#f5f5f5;align=left;verticalAlign=middle;spacingLeft=4;spacingRight=4;overflow=hidden;points=[[0,0.5],[1,0.5]];portConstraint=eastwest;rotatable=0;fontSize=18;fontColor=#333333;" parent="2" vertex="1">
                    <mxGeometry y="270" width="496" height="30" as="geometry"/>
                </mxCell>
                <mxCell id="12" value="keep_max_time（最大心跳间隔时间）" style="text;strokeColor=#666666;fillColor=#f5f5f5;align=left;verticalAlign=middle;spacingLeft=4;spacingRight=4;overflow=hidden;points=[[0,0.5],[1,0.5]];portConstraint=eastwest;rotatable=0;fontSize=18;fontColor=#333333;" parent="2" vertex="1">
                    <mxGeometry y="300" width="496" height="30" as="geometry"/>
                </mxCell>
                <mxCell id="101" value="serve_fds（存放需监听文件描述符集合）" style="text;strokeColor=#666666;fillColor=#f5f5f5;align=left;verticalAlign=middle;spacingLeft=4;spacingRight=4;overflow=hidden;points=[[0,0.5],[1,0.5]];portConstraint=eastwest;rotatable=0;fontSize=18;fontColor=#333333;" parent="2" vertex="1">
                    <mxGeometry y="330" width="496" height="30" as="geometry"/>
                </mxCell>
                <mxCell id="102" value="alive_timer（心跳定时器id）" style="text;strokeColor=#666666;fillColor=#f5f5f5;align=left;verticalAlign=middle;spacingLeft=4;spacingRight=4;overflow=hidden;points=[[0,0.5],[1,0.5]];portConstraint=eastwest;rotatable=0;fontSize=18;fontColor=#333333;" parent="2" vertex="1">
                    <mxGeometry y="360" width="496" height="30" as="geometry"/>
                </mxCell>
                <mxCell id="13" value="alive_flag（心跳检测标志）" style="text;strokeColor=#666666;fillColor=#f5f5f5;align=left;verticalAlign=middle;spacingLeft=4;spacingRight=4;overflow=hidden;points=[[0,0.5],[1,0.5]];portConstraint=eastwest;rotatable=0;fontSize=18;fontColor=#333333;" parent="2" vertex="1">
                    <mxGeometry y="390" width="496" height="30" as="geometry"/>
                </mxCell>
                <mxCell id="14" value="结构体 mng_clients_info" style="swimlane;fontStyle=0;childLayout=stackLayout;horizontal=1;startSize=30;horizontalStack=0;resizeParent=1;resizeParentMax=0;resizeLast=0;collapsible=1;marginBottom=0;fontSize=18;strokeWidth=2;fillColor=#f5f5f5;strokeColor=#666666;fontColor=#333333;" parent="1" vertex="1">
                    <mxGeometry x="45" y="-94" width="360" height="270" as="geometry">
                        <mxRectangle x="127" y="70" width="221" height="30" as="alternateBounds"/>
                    </mxGeometry>
                </mxCell>
                <mxCell id="15" value="client_fd（客户端socket）" style="text;strokeColor=#666666;fillColor=#f5f5f5;align=left;verticalAlign=middle;spacingLeft=4;spacingRight=4;overflow=hidden;points=[[0,0.5],[1,0.5]];portConstraint=eastwest;rotatable=0;fontSize=18;fontColor=#333333;" parent="14" vertex="1">
                    <mxGeometry y="30" width="360" height="30" as="geometry"/>
                </mxCell>
                <mxCell id="16" value="is_online（客户端在线与否）" style="text;strokeColor=#666666;fillColor=#f5f5f5;align=left;verticalAlign=middle;spacingLeft=4;spacingRight=4;overflow=hidden;points=[[0,0.5],[1,0.5]];portConstraint=eastwest;rotatable=0;fontSize=18;fontColor=#333333;" parent="14" vertex="1">
                    <mxGeometry y="60" width="360" height="30" as="geometry"/>
                </mxCell>
                <mxCell id="17" value="commit_flag（上报消息队列线程标志）" style="text;strokeColor=#666666;fillColor=#f5f5f5;align=left;verticalAlign=middle;spacingLeft=4;spacingRight=4;overflow=hidden;points=[[0,0.5],[1,0.5]];portConstraint=eastwest;rotatable=0;fontSize=18;fontColor=#333333;" parent="14" vertex="1">
                    <mxGeometry y="90" width="360" height="30" as="geometry"/>
                </mxCell>
                <mxCell id="18" value="commit_tid（上报消息队列线程ID）" style="text;strokeColor=#666666;fillColor=#f5f5f5;align=left;verticalAlign=middle;spacingLeft=4;spacingRight=4;overflow=hidden;points=[[0,0.5],[1,0.5]];portConstraint=eastwest;rotatable=0;fontSize=18;fontColor=#333333;" parent="14" vertex="1">
                    <mxGeometry y="120" width="360" height="30" as="geometry"/>
                </mxCell>
                <mxCell id="19" value="s_fifo（存储客户端信息的环形fifo）" style="text;strokeColor=#666666;fillColor=#f5f5f5;align=left;verticalAlign=middle;spacingLeft=4;spacingRight=4;overflow=hidden;points=[[0,0.5],[1,0.5]];portConstraint=eastwest;rotatable=0;fontSize=18;fontColor=#333333;" parent="14" vertex="1">
                    <mxGeometry y="150" width="360" height="30" as="geometry"/>
                </mxCell>
                <mxCell id="20" value="keep_last_time（最近一次心跳时间戳）" style="text;strokeColor=#666666;fillColor=#f5f5f5;align=left;verticalAlign=middle;spacingLeft=4;spacingRight=4;overflow=hidden;points=[[0,0.5],[1,0.5]];portConstraint=eastwest;rotatable=0;fontSize=18;fontColor=#333333;" parent="14" vertex="1">
                    <mxGeometry y="180" width="360" height="30" as="geometry"/>
                </mxCell>
                <mxCell id="22" value="hip（hip网络协议封装）" style="text;strokeColor=#666666;fillColor=#f5f5f5;align=left;verticalAlign=middle;spacingLeft=4;spacingRight=4;overflow=hidden;points=[[0,0.5],[1,0.5]];portConstraint=eastwest;rotatable=0;fontSize=18;fontColor=#333333;" parent="14" vertex="1">
                    <mxGeometry y="210" width="360" height="30" as="geometry"/>
                </mxCell>
                <mxCell id="103" value="client_addr（存储客户端IP和port）" style="text;strokeColor=#666666;fillColor=#f5f5f5;align=left;verticalAlign=middle;spacingLeft=4;spacingRight=4;overflow=hidden;points=[[0,0.5],[1,0.5]];portConstraint=eastwest;rotatable=0;fontSize=18;fontColor=#333333;" parent="14" vertex="1">
                    <mxGeometry y="240" width="360" height="30" as="geometry"/>
                </mxCell>
                <mxCell id="23" value="" style="endArrow=none;html=1;fontSize=18;entryX=1.002;entryY=0.033;entryDx=0;entryDy=0;exitX=0;exitY=-0.033;exitDx=0;exitDy=0;strokeWidth=2;entryPerimeter=0;exitPerimeter=0;fillColor=#f5f5f5;strokeColor=#666666;" parent="1" source="15" target="11" edge="1">
                    <mxGeometry width="50" height="50" relative="1" as="geometry">
                        <mxPoint x="-126" y="220" as="sourcePoint"/>
                        <mxPoint x="-76" y="170" as="targetPoint"/>
                    </mxGeometry>
                </mxCell>
                <mxCell id="24" value="" style="endArrow=none;html=1;fontSize=18;entryX=0.998;entryY=-0.133;entryDx=0;entryDy=0;exitX=0;exitY=1;exitDx=0;exitDy=0;strokeWidth=2;entryPerimeter=0;fillColor=#f5f5f5;strokeColor=#666666;" parent="1" source="14" target="12" edge="1">
                    <mxGeometry width="50" height="50" relative="1" as="geometry">
                        <mxPoint x="142" y="115" as="sourcePoint"/>
                        <mxPoint x="18" y="193" as="targetPoint"/>
                    </mxGeometry>
                </mxCell>
                <mxCell id="25" value="结构体 led" style="swimlane;fontStyle=0;childLayout=stackLayout;horizontal=1;startSize=30;horizontalStack=0;resizeParent=1;resizeParentMax=0;resizeLast=0;collapsible=1;marginBottom=0;fontSize=18;strokeWidth=2;fillColor=#f5f5f5;strokeColor=#666666;fontColor=#333333;" parent="1" vertex="1">
                    <mxGeometry x="-766" y="292" width="507" height="204" as="geometry">
                        <mxRectangle x="-592" y="337" width="110" height="30" as="alternateBounds"/>
                    </mxGeometry>
                </mxCell>
                <mxCell id="26" value="handle_flag（led处理线程标志）" style="text;strokeColor=#666666;fillColor=#f5f5f5;align=left;verticalAlign=middle;spacingLeft=4;spacingRight=4;overflow=hidden;points=[[0,0.5],[1,0.5]];portConstraint=eastwest;rotatable=0;fontSize=18;fontColor=#333333;" parent="25" vertex="1">
                    <mxGeometry y="30" width="507" height="30" as="geometry"/>
                </mxCell>
                <mxCell id="27" value="led_count（结构体中的真实led数量）" style="text;strokeColor=#666666;fillColor=#f5f5f5;align=left;verticalAlign=middle;spacingLeft=4;spacingRight=4;overflow=hidden;points=[[0,0.5],[1,0.5]];portConstraint=eastwest;rotatable=0;fontSize=18;fontColor=#333333;" parent="25" vertex="1">
                    <mxGeometry y="60" width="507" height="30" as="geometry"/>
                </mxCell>
                <mxCell id="28" value="leds_sort[LED_NUMBER_COUNT]（结构体中的led具体颜色）" style="text;strokeColor=#666666;fillColor=#f5f5f5;align=left;verticalAlign=middle;spacingLeft=4;spacingRight=4;overflow=hidden;points=[[0,0.5],[1,0.5]];portConstraint=eastwest;rotatable=0;fontSize=18;fontColor=#333333;" parent="25" vertex="1">
                    <mxGeometry y="90" width="507" height="38" as="geometry"/>
                </mxCell>
                <mxCell id="29" value="handle_td（led处理线程ID）" style="text;strokeColor=#666666;fillColor=#f5f5f5;align=left;verticalAlign=middle;spacingLeft=4;spacingRight=4;overflow=hidden;points=[[0,0.5],[1,0.5]];portConstraint=eastwest;rotatable=0;fontSize=18;fontColor=#333333;" parent="25" vertex="1">
                    <mxGeometry y="128" width="507" height="38" as="geometry"/>
                </mxCell>
                <mxCell id="30" value="led_mng（实际led）" style="text;strokeColor=#666666;fillColor=#f5f5f5;align=left;verticalAlign=middle;spacingLeft=4;spacingRight=4;overflow=hidden;points=[[0,0.5],[1,0.5]];portConstraint=eastwest;rotatable=0;fontSize=18;fontColor=#333333;" parent="25" vertex="1">
                    <mxGeometry y="166" width="507" height="38" as="geometry"/>
                </mxCell>
                <mxCell id="31" value="" style="endArrow=none;html=1;fontSize=18;strokeWidth=2;exitX=0.015;exitY=0;exitDx=0;exitDy=0;exitPerimeter=0;fillColor=#f5f5f5;strokeColor=#666666;entryX=1.002;entryY=0.026;entryDx=0;entryDy=0;entryPerimeter=0;" parent="1" source="34" target="30" edge="1">
                    <mxGeometry width="50" height="50" relative="1" as="geometry">
                        <mxPoint x="109" y="467" as="sourcePoint"/>
                        <mxPoint x="-230" y="440" as="targetPoint"/>
                    </mxGeometry>
                </mxCell>
                <mxCell id="32" value="" style="endArrow=none;html=1;fontSize=18;strokeWidth=2;entryX=1.002;entryY=0.974;entryDx=0;entryDy=0;entryPerimeter=0;exitX=0.003;exitY=0.967;exitDx=0;exitDy=0;exitPerimeter=0;fillColor=#f5f5f5;strokeColor=#666666;" parent="1" source="35" target="30" edge="1">
                    <mxGeometry width="50" height="50" relative="1" as="geometry">
                        <mxPoint x="117.77399999999989" y="558.0100000000002" as="sourcePoint"/>
                        <mxPoint x="15" y="500" as="targetPoint"/>
                    </mxGeometry>
                </mxCell>
                <mxCell id="33" value="结构体 led_mng" style="swimlane;fontStyle=0;childLayout=stackLayout;horizontal=1;startSize=30;horizontalStack=0;resizeParent=1;resizeParentMax=0;resizeLast=0;collapsible=1;marginBottom=0;fontSize=18;strokeWidth=2;fillColor=#f5f5f5;strokeColor=#666666;fontColor=#333333;" parent="1" vertex="1">
                    <mxGeometry x="-217" y="462" width="265" height="90" as="geometry">
                        <mxRectangle x="-238" y="362" width="155" height="30" as="alternateBounds"/>
                    </mxGeometry>
                </mxCell>
                <mxCell id="34" value="led_green（led具体属性的封装）" style="text;strokeColor=#666666;fillColor=#f5f5f5;align=left;verticalAlign=middle;spacingLeft=4;spacingRight=4;overflow=hidden;points=[[0,0.5],[1,0.5]];portConstraint=eastwest;rotatable=0;fontSize=18;fontColor=#333333;" parent="33" vertex="1">
                    <mxGeometry y="30" width="265" height="30" as="geometry"/>
                </mxCell>
                <mxCell id="35" value="led_red（led具体属性的封装）" style="text;strokeColor=#666666;fillColor=#f5f5f5;align=left;verticalAlign=middle;spacingLeft=4;spacingRight=4;overflow=hidden;points=[[0,0.5],[1,0.5]];portConstraint=eastwest;rotatable=0;fontSize=18;fontColor=#333333;" parent="33" vertex="1">
                    <mxGeometry y="60" width="265" height="30" as="geometry"/>
                </mxCell>
                <mxCell id="36" value="" style="endArrow=none;html=1;fontSize=18;strokeWidth=2;exitX=1;exitY=0;exitDx=0;exitDy=0;entryX=0.01;entryY=-0.033;entryDx=0;entryDy=0;entryPerimeter=0;fillColor=#f5f5f5;strokeColor=#666666;" parent="1" source="33" target="39" edge="1">
                    <mxGeometry width="50" height="50" relative="1" as="geometry">
                        <mxPoint x="370" y="330" as="sourcePoint"/>
                        <mxPoint x="415" y="393" as="targetPoint"/>
                    </mxGeometry>
                </mxCell>
                <mxCell id="37" value="" style="endArrow=none;html=1;fontSize=18;strokeWidth=2;exitX=1;exitY=-0.1;exitDx=0;exitDy=0;exitPerimeter=0;entryX=-0.004;entryY=1.011;entryDx=0;entryDy=0;entryPerimeter=0;fillColor=#f5f5f5;strokeColor=#666666;" parent="1" source="34" target="46" edge="1">
                    <mxGeometry width="50" height="50" relative="1" as="geometry">
                        <mxPoint x="118" y="330" as="sourcePoint"/>
                        <mxPoint x="433" y="516" as="targetPoint"/>
                    </mxGeometry>
                </mxCell>
                <mxCell id="38" value="结构体 led_item_conf" style="swimlane;fontStyle=0;childLayout=stackLayout;horizontal=1;startSize=30;horizontalStack=0;resizeParent=1;resizeParentMax=0;resizeLast=0;collapsible=1;marginBottom=0;fontSize=18;strokeWidth=2;fillColor=#f5f5f5;strokeColor=#666666;fontColor=#333333;" parent="1" vertex="1">
                    <mxGeometry x="99" y="292" width="306" height="270" as="geometry">
                        <mxRectangle x="78" y="362" width="198" height="30" as="alternateBounds"/>
                    </mxGeometry>
                </mxCell>
                <mxCell id="39" value="dev_name（具体led文件的路径）" style="text;strokeColor=#666666;fillColor=#f5f5f5;align=left;verticalAlign=middle;spacingLeft=4;spacingRight=4;overflow=hidden;points=[[0,0.5],[1,0.5]];portConstraint=eastwest;rotatable=0;fontSize=18;fontColor=#333333;" parent="38" vertex="1">
                    <mxGeometry y="30" width="306" height="30" as="geometry"/>
                </mxCell>
                <mxCell id="40" value="sort（具体led的种类，红、绿）" style="text;strokeColor=#666666;fillColor=#f5f5f5;align=left;verticalAlign=middle;spacingLeft=4;spacingRight=4;overflow=hidden;points=[[0,0.5],[1,0.5]];portConstraint=eastwest;rotatable=0;fontSize=18;fontColor=#333333;" parent="38" vertex="1">
                    <mxGeometry y="60" width="306" height="30" as="geometry"/>
                </mxCell>
                <mxCell id="41" value="mode（led的运行模式，点灯、呼吸）" style="text;strokeColor=#666666;fillColor=#f5f5f5;align=left;verticalAlign=middle;spacingLeft=4;spacingRight=4;overflow=hidden;points=[[0,0.5],[1,0.5]];portConstraint=eastwest;rotatable=0;fontSize=18;fontColor=#333333;" parent="38" vertex="1">
                    <mxGeometry y="90" width="306" height="30" as="geometry"/>
                </mxCell>
                <mxCell id="42" value="state（led的状态，亮、灭）" style="text;strokeColor=#666666;fillColor=#f5f5f5;align=left;verticalAlign=middle;spacingLeft=4;spacingRight=4;overflow=hidden;points=[[0,0.5],[1,0.5]];portConstraint=eastwest;rotatable=0;fontSize=18;fontColor=#333333;" parent="38" vertex="1">
                    <mxGeometry y="120" width="306" height="30" as="geometry"/>
                </mxCell>
                <mxCell id="43" value="speed（led呼吸模式下的速率）" style="text;strokeColor=#666666;fillColor=#f5f5f5;align=left;verticalAlign=middle;spacingLeft=4;spacingRight=4;overflow=hidden;points=[[0,0.5],[1,0.5]];portConstraint=eastwest;rotatable=0;fontSize=18;fontColor=#333333;" parent="38" vertex="1">
                    <mxGeometry y="150" width="306" height="30" as="geometry"/>
                </mxCell>
                <mxCell id="44" value="timer（定时器id，实现呼吸效果）" style="text;strokeColor=#666666;fillColor=#f5f5f5;align=left;verticalAlign=middle;spacingLeft=4;spacingRight=4;overflow=hidden;points=[[0,0.5],[1,0.5]];portConstraint=eastwest;rotatable=0;fontSize=18;fontColor=#333333;" parent="38" vertex="1">
                    <mxGeometry y="180" width="306" height="30" as="geometry"/>
                </mxCell>
                <mxCell id="45" value="evp(设置到期的信号种类，回调函数)" style="text;strokeColor=#666666;fillColor=#f5f5f5;align=left;verticalAlign=middle;spacingLeft=4;spacingRight=4;overflow=hidden;points=[[0,0.5],[1,0.5]];portConstraint=eastwest;rotatable=0;fontSize=18;fontColor=#333333;" parent="38" vertex="1">
                    <mxGeometry y="210" width="306" height="30" as="geometry"/>
                </mxCell>
                <mxCell id="46" value="ts（定时器的时间设置）" style="text;strokeColor=#666666;fillColor=#f5f5f5;align=left;verticalAlign=middle;spacingLeft=4;spacingRight=4;overflow=hidden;points=[[0,0.5],[1,0.5]];portConstraint=eastwest;rotatable=0;fontSize=18;fontColor=#333333;" parent="38" vertex="1">
                    <mxGeometry y="240" width="306" height="30" as="geometry"/>
                </mxCell>
                <mxCell id="47" value="结构体 tty" style="swimlane;fontStyle=0;childLayout=stackLayout;horizontal=1;startSize=30;horizontalStack=0;resizeParent=1;resizeParentMax=0;resizeLast=0;collapsible=1;marginBottom=0;fontSize=18;strokeWidth=2;fillColor=#f5f5f5;strokeColor=#666666;fontColor=#333333;" parent="1" vertex="1">
                    <mxGeometry x="-565" y="-845" width="322" height="300" as="geometry">
                        <mxRectangle x="-378.5" y="-701" width="105" height="30" as="alternateBounds"/>
                    </mxGeometry>
                </mxCell>
                <mxCell id="48" value="tty_fd（串口结点文件描述符）" style="text;strokeColor=#666666;fillColor=#f5f5f5;align=left;verticalAlign=middle;spacingLeft=4;spacingRight=4;overflow=hidden;points=[[0,0.5],[1,0.5]];portConstraint=eastwest;rotatable=0;fontSize=18;fontColor=#333333;" parent="47" vertex="1">
                    <mxGeometry y="30" width="322" height="30" as="geometry"/>
                </mxCell>
                <mxCell id="49" value="recive_buff（串口接受数据缓存）" style="text;strokeColor=#666666;fillColor=#f5f5f5;align=left;verticalAlign=middle;spacingLeft=4;spacingRight=4;overflow=hidden;points=[[0,0.5],[1,0.5]];portConstraint=eastwest;rotatable=0;fontSize=18;fontColor=#333333;" parent="47" vertex="1">
                    <mxGeometry y="60" width="322" height="30" as="geometry"/>
                </mxCell>
                <mxCell id="50" value="send_buff（串口发送数据缓存）" style="text;strokeColor=#666666;fillColor=#f5f5f5;align=left;verticalAlign=middle;spacingLeft=4;spacingRight=4;overflow=hidden;points=[[0,0.5],[1,0.5]];portConstraint=eastwest;rotatable=0;fontSize=18;fontColor=#333333;" parent="47" vertex="1">
                    <mxGeometry y="90" width="322" height="30" as="geometry"/>
                </mxCell>
                <mxCell id="51" value="recive_td（接受串口数据线程ID）" style="text;strokeColor=#666666;fillColor=#f5f5f5;align=left;verticalAlign=middle;spacingLeft=4;spacingRight=4;overflow=hidden;points=[[0,0.5],[1,0.5]];portConstraint=eastwest;rotatable=0;fontSize=18;fontColor=#333333;" parent="47" vertex="1">
                    <mxGeometry y="120" width="322" height="30" as="geometry"/>
                </mxCell>
                <mxCell id="52" value="handle_td（处理串口数据线程ID）" style="text;strokeColor=#666666;fillColor=#f5f5f5;align=left;verticalAlign=middle;spacingLeft=4;spacingRight=4;overflow=hidden;points=[[0,0.5],[1,0.5]];portConstraint=eastwest;rotatable=0;fontSize=18;fontColor=#333333;" parent="47" vertex="1">
                    <mxGeometry y="150" width="322" height="30" as="geometry"/>
                </mxCell>
                <mxCell id="53" value="send_td（发送串口数据ID）" style="text;strokeColor=#666666;fillColor=#f5f5f5;align=left;verticalAlign=middle;spacingLeft=4;spacingRight=4;overflow=hidden;points=[[0,0.5],[1,0.5]];portConstraint=eastwest;rotatable=0;fontSize=18;fontColor=#333333;" parent="47" vertex="1">
                    <mxGeometry y="180" width="322" height="30" as="geometry"/>
                </mxCell>
                <mxCell id="54" value="r_fifo（存储接受串口数据的环形buff）" style="text;strokeColor=#666666;fillColor=#f5f5f5;align=left;verticalAlign=middle;spacingLeft=4;spacingRight=4;overflow=hidden;points=[[0,0.5],[1,0.5]];portConstraint=eastwest;rotatable=0;fontSize=18;fontColor=#333333;" parent="47" vertex="1">
                    <mxGeometry y="210" width="322" height="30" as="geometry"/>
                </mxCell>
                <mxCell id="55" value="w_fifo（存储发送串口数据的环形buff）" style="text;strokeColor=#666666;fillColor=#f5f5f5;align=left;verticalAlign=middle;spacingLeft=4;spacingRight=4;overflow=hidden;points=[[0,0.5],[1,0.5]];portConstraint=eastwest;rotatable=0;fontSize=18;fontColor=#333333;" parent="47" vertex="1">
                    <mxGeometry y="240" width="322" height="30" as="geometry"/>
                </mxCell>
                <mxCell id="56" value="hup_frame（hup帧结构封装）" style="text;strokeColor=#666666;fillColor=#f5f5f5;align=left;verticalAlign=middle;spacingLeft=4;spacingRight=4;overflow=hidden;points=[[0,0.5],[1,0.5]];portConstraint=eastwest;rotatable=0;fontSize=18;fontColor=#333333;" parent="47" vertex="1">
                    <mxGeometry y="270" width="322" height="30" as="geometry"/>
                </mxCell>
                <mxCell id="57" value="结构体 hup_protocol_type" style="swimlane;fontStyle=0;childLayout=stackLayout;horizontal=1;startSize=30;horizontalStack=0;resizeParent=1;resizeParentMax=0;resizeLast=0;collapsible=1;marginBottom=0;fontSize=18;strokeWidth=2;fillColor=#f5f5f5;strokeColor=#666666;fontColor=#333333;" parent="1" vertex="1">
                    <mxGeometry x="-49" y="-728" width="322" height="210" as="geometry">
                        <mxRectangle x="13" y="-623" width="234" height="30" as="alternateBounds"/>
                    </mxGeometry>
                </mxCell>
                <mxCell id="58" value="hdr_h（hup高位头部）" style="text;strokeColor=#666666;fillColor=#f5f5f5;align=left;verticalAlign=middle;spacingLeft=4;spacingRight=4;overflow=hidden;points=[[0,0.5],[1,0.5]];portConstraint=eastwest;rotatable=0;fontSize=18;fontColor=#333333;" parent="57" vertex="1">
                    <mxGeometry y="30" width="322" height="30" as="geometry"/>
                </mxCell>
                <mxCell id="59" value="hdr_l（hup低位头部）" style="text;strokeColor=#666666;fillColor=#f5f5f5;align=left;verticalAlign=middle;spacingLeft=4;spacingRight=4;overflow=hidden;points=[[0,0.5],[1,0.5]];portConstraint=eastwest;rotatable=0;fontSize=18;fontColor=#333333;" parent="57" vertex="1">
                    <mxGeometry y="60" width="322" height="30" as="geometry"/>
                </mxCell>
                <mxCell id="60" value="cmd（hup帧包含命令）" style="text;strokeColor=#666666;fillColor=#f5f5f5;align=left;verticalAlign=middle;spacingLeft=4;spacingRight=4;overflow=hidden;points=[[0,0.5],[1,0.5]];portConstraint=eastwest;rotatable=0;fontSize=18;fontColor=#333333;" parent="57" vertex="1">
                    <mxGeometry y="90" width="322" height="30" as="geometry"/>
                </mxCell>
                <mxCell id="61" value="data_len（hup帧负载数据长度）" style="text;strokeColor=#666666;fillColor=#f5f5f5;align=left;verticalAlign=middle;spacingLeft=4;spacingRight=4;overflow=hidden;points=[[0,0.5],[1,0.5]];portConstraint=eastwest;rotatable=0;fontSize=18;fontColor=#333333;" parent="57" vertex="1">
                    <mxGeometry y="120" width="322" height="30" as="geometry"/>
                </mxCell>
                <mxCell id="62" value="data_addr（hup帧负载数据存储区）" style="text;strokeColor=#666666;fillColor=#f5f5f5;align=left;verticalAlign=middle;spacingLeft=4;spacingRight=4;overflow=hidden;points=[[0,0.5],[1,0.5]];portConstraint=eastwest;rotatable=0;fontSize=18;fontColor=#333333;" parent="57" vertex="1">
                    <mxGeometry y="150" width="322" height="30" as="geometry"/>
                </mxCell>
                <mxCell id="96" value="xor8（hup帧的校验位）" style="text;strokeColor=#666666;fillColor=#f5f5f5;align=left;verticalAlign=middle;spacingLeft=4;spacingRight=4;overflow=hidden;points=[[0,0.5],[1,0.5]];portConstraint=eastwest;rotatable=0;fontSize=18;fontColor=#333333;" parent="57" vertex="1">
                    <mxGeometry y="180" width="322" height="30" as="geometry"/>
                </mxCell>
                <mxCell id="63" value="" style="endArrow=none;html=1;fontSize=18;strokeWidth=2;entryX=0;entryY=1;entryDx=0;entryDy=0;exitX=0.998;exitY=0.933;exitDx=0;exitDy=0;exitPerimeter=0;fillColor=#f5f5f5;strokeColor=#666666;" parent="1" source="56" target="57" edge="1">
                    <mxGeometry width="50" height="50" relative="1" as="geometry">
                        <mxPoint x="-61" y="-452" as="sourcePoint"/>
                        <mxPoint x="-52" y="-481" as="targetPoint"/>
                    </mxGeometry>
                </mxCell>
                <mxCell id="64" value="" style="endArrow=none;html=1;fontSize=18;strokeWidth=2;entryX=0.002;entryY=0;entryDx=0;entryDy=0;entryPerimeter=0;exitX=1.002;exitY=0.133;exitDx=0;exitDy=0;exitPerimeter=0;fillColor=#f5f5f5;strokeColor=#666666;" parent="1" source="56" target="58" edge="1">
                    <mxGeometry width="50" height="50" relative="1" as="geometry">
                        <mxPoint x="-25" y="-464" as="sourcePoint"/>
                        <mxPoint x="-52" y="-481" as="targetPoint"/>
                    </mxGeometry>
                </mxCell>
                <mxCell id="65" value="结构体 app" style="swimlane;fontStyle=0;childLayout=stackLayout;horizontal=1;startSize=30;horizontalStack=0;resizeParent=1;resizeParentMax=0;resizeLast=0;collapsible=1;marginBottom=0;fontSize=18;strokeWidth=2;fillColor=#f5f5f5;strokeColor=#666666;fontColor=#333333;" parent="1" vertex="1">
                    <mxGeometry x="-516" y="-510" width="299" height="300" as="geometry"/>
                </mxCell>
                <mxCell id="66" value="app_td（app线程ID）" style="text;strokeColor=#666666;fillColor=#f5f5f5;align=left;verticalAlign=middle;spacingLeft=4;spacingRight=4;overflow=hidden;points=[[0,0.5],[1,0.5]];portConstraint=eastwest;rotatable=0;fontSize=18;fontColor=#333333;" parent="65" vertex="1">
                    <mxGeometry y="30" width="299" height="30" as="geometry"/>
                </mxCell>
                <mxCell id="67" value="app_flag（app线程标志）" style="text;strokeColor=#666666;fillColor=#f5f5f5;align=left;verticalAlign=middle;spacingLeft=4;spacingRight=4;overflow=hidden;points=[[0,0.5],[1,0.5]];portConstraint=eastwest;rotatable=0;fontSize=18;fontColor=#333333;" parent="65" vertex="1">
                    <mxGeometry y="60" width="299" height="30" as="geometry"/>
                </mxCell>
                <mxCell id="68" value="msg_id（消息队列ID）" style="text;strokeColor=#666666;fillColor=#f5f5f5;align=left;verticalAlign=middle;spacingLeft=4;spacingRight=4;overflow=hidden;points=[[0,0.5],[1,0.5]];portConstraint=eastwest;rotatable=0;fontSize=18;fontColor=#333333;" parent="65" vertex="1">
                    <mxGeometry y="90" width="299" height="30" as="geometry"/>
                </mxCell>
                <mxCell id="69" value="message（消息队列消息结构体）" style="text;strokeColor=#666666;fillColor=#f5f5f5;align=left;verticalAlign=middle;spacingLeft=4;spacingRight=4;overflow=hidden;points=[[0,0.5],[1,0.5]];portConstraint=eastwest;rotatable=0;fontSize=18;fontColor=#333333;" parent="65" vertex="1">
                    <mxGeometry y="120" width="299" height="30" as="geometry"/>
                </mxCell>
                <mxCell id="70" value="uart（串口模块结构体）" style="text;strokeColor=#666666;fillColor=#f5f5f5;align=left;verticalAlign=middle;spacingLeft=4;spacingRight=4;overflow=hidden;points=[[0,0.5],[1,0.5]];portConstraint=eastwest;rotatable=0;fontSize=18;fontColor=#333333;" parent="65" vertex="1">
                    <mxGeometry y="150" width="299" height="30" as="geometry"/>
                </mxCell>
                <mxCell id="167" value="led（led_app模块结构体）" style="text;strokeColor=#666666;fillColor=#f5f5f5;align=left;verticalAlign=middle;spacingLeft=4;spacingRight=4;overflow=hidden;points=[[0,0.5],[1,0.5]];portConstraint=eastwest;rotatable=0;fontSize=18;fontColor=#333333;" vertex="1" parent="65">
                    <mxGeometry y="180" width="299" height="30" as="geometry"/>
                </mxCell>
                <mxCell id="166" value="server（server模块结构体）" style="text;strokeColor=#666666;fillColor=#f5f5f5;align=left;verticalAlign=middle;spacingLeft=4;spacingRight=4;overflow=hidden;points=[[0,0.5],[1,0.5]];portConstraint=eastwest;rotatable=0;fontSize=18;fontColor=#333333;" vertex="1" parent="65">
                    <mxGeometry y="210" width="299" height="30" as="geometry"/>
                </mxCell>
                <mxCell id="71" value="client（client模块结构体）" style="text;strokeColor=#666666;fillColor=#f5f5f5;align=left;verticalAlign=middle;spacingLeft=4;spacingRight=4;overflow=hidden;points=[[0,0.5],[1,0.5]];portConstraint=eastwest;rotatable=0;fontSize=18;fontColor=#333333;" parent="65" vertex="1">
                    <mxGeometry y="240" width="299" height="30" as="geometry"/>
                </mxCell>
                <mxCell id="72" value="cmds（解析app线程状态机结构体）" style="text;strokeColor=#666666;fillColor=#f5f5f5;align=left;verticalAlign=middle;spacingLeft=4;spacingRight=4;overflow=hidden;points=[[0,0.5],[1,0.5]];portConstraint=eastwest;rotatable=0;fontSize=18;fontColor=#333333;" parent="65" vertex="1">
                    <mxGeometry y="270" width="299" height="30" as="geometry"/>
                </mxCell>
                <mxCell id="73" value="" style="endArrow=none;html=1;fontSize=18;strokeWidth=2;exitX=1.002;exitY=1;exitDx=0;exitDy=0;exitPerimeter=0;entryX=0;entryY=1;entryDx=0;entryDy=0;fillColor=#f5f5f5;strokeColor=#666666;" parent="1" source="72" target="75" edge="1">
                    <mxGeometry width="50" height="50" relative="1" as="geometry">
                        <mxPoint x="-293" y="-351" as="sourcePoint"/>
                        <mxPoint x="-137" y="-270" as="targetPoint"/>
                    </mxGeometry>
                </mxCell>
                <mxCell id="74" value="" style="endArrow=none;html=1;fontSize=18;strokeWidth=2;exitX=1.002;exitY=0.013;exitDx=0;exitDy=0;exitPerimeter=0;entryX=-0.007;entryY=0.013;entryDx=0;entryDy=0;entryPerimeter=0;fillColor=#f5f5f5;strokeColor=#666666;" parent="1" source="72" target="76" edge="1">
                    <mxGeometry width="50" height="50" relative="1" as="geometry">
                        <mxPoint x="-293" y="-351" as="sourcePoint"/>
                        <mxPoint x="-144" y="-330" as="targetPoint"/>
                    </mxGeometry>
                </mxCell>
                <mxCell id="75" value="结构体 cmd" style="swimlane;fontStyle=0;childLayout=stackLayout;horizontal=1;startSize=30;horizontalStack=0;resizeParent=1;resizeParentMax=0;resizeLast=0;collapsible=1;marginBottom=0;fontSize=18;strokeWidth=2;fillColor=#f5f5f5;strokeColor=#666666;fontColor=#333333;" parent="1" vertex="1">
                    <mxGeometry x="-138" y="-363" width="289" height="150" as="geometry"/>
                </mxCell>
                <mxCell id="76" value="led_cmds（led的命令结构体）" style="text;strokeColor=#666666;fillColor=#f5f5f5;align=left;verticalAlign=middle;spacingLeft=4;spacingRight=4;overflow=hidden;points=[[0,0.5],[1,0.5]];portConstraint=eastwest;rotatable=0;fontSize=18;fontColor=#333333;" parent="75" vertex="1">
                    <mxGeometry y="30" width="289" height="30" as="geometry"/>
                </mxCell>
                <mxCell id="77" value="uart_cmds（uart的命令结构体）" style="text;strokeColor=#666666;fillColor=#f5f5f5;align=left;verticalAlign=middle;spacingLeft=4;spacingRight=4;overflow=hidden;points=[[0,0.5],[1,0.5]];portConstraint=eastwest;rotatable=0;fontSize=18;fontColor=#333333;" parent="75" vertex="1">
                    <mxGeometry y="60" width="289" height="30" as="geometry"/>
                </mxCell>
                <mxCell id="168" value="client_cmds（client的命令结构体）" style="text;strokeColor=#666666;fillColor=#f5f5f5;align=left;verticalAlign=middle;spacingLeft=4;spacingRight=4;overflow=hidden;points=[[0,0.5],[1,0.5]];portConstraint=eastwest;rotatable=0;fontSize=18;fontColor=#333333;" vertex="1" parent="75">
                    <mxGeometry y="90" width="289" height="30" as="geometry"/>
                </mxCell>
                <mxCell id="169" value="server_cmds（server的命令结构体）" style="text;strokeColor=#666666;fillColor=#f5f5f5;align=left;verticalAlign=middle;spacingLeft=4;spacingRight=4;overflow=hidden;points=[[0,0.5],[1,0.5]];portConstraint=eastwest;rotatable=0;fontSize=18;fontColor=#333333;" vertex="1" parent="75">
                    <mxGeometry y="120" width="289" height="30" as="geometry"/>
                </mxCell>
                <mxCell id="78" value="&lt;font style=&quot;font-size: 21px&quot;&gt;&lt;b&gt;led_app模块&lt;br&gt;&lt;/b&gt;&lt;/font&gt;" style="text;html=1;align=center;verticalAlign=middle;resizable=0;points=[];autosize=1;strokeColor=#666666;fillColor=#f5f5f5;fontSize=15;fontColor=#333333;" parent="1" vertex="1">
                    <mxGeometry x="-198" y="310" width="131" height="24" as="geometry"/>
                </mxCell>
                <mxCell id="79" value="uart_app模块" style="text;html=1;strokeColor=#666666;fillColor=#f5f5f5;align=center;verticalAlign=middle;whiteSpace=wrap;rounded=0;fontSize=21;fontStyle=1;fontColor=#333333;" parent="1" vertex="1">
                    <mxGeometry x="-198" y="-841" width="300" height="70" as="geometry"/>
                </mxCell>
                <mxCell id="80" value="Linux网络编程 服务端思路" style="text;html=1;strokeColor=#666666;fillColor=#f5f5f5;align=center;verticalAlign=middle;whiteSpace=wrap;rounded=0;fontSize=21;fontStyle=1;fontColor=#333333;" parent="1" vertex="1">
                    <mxGeometry x="41" y="-185" width="300" height="70" as="geometry"/>
                </mxCell>
                <mxCell id="81" value="结构体 tcp_client" style="swimlane;fontStyle=0;childLayout=stackLayout;horizontal=1;startSize=30;horizontalStack=0;resizeParent=1;resizeParentMax=0;resizeLast=0;collapsible=1;marginBottom=0;fontSize=18;strokeWidth=2;fillColor=#f5f5f5;strokeColor=#666666;fontColor=#333333;" parent="1" vertex="1">
                    <mxGeometry x="368" y="-813" width="550" height="480" as="geometry">
                        <mxRectangle x="-474" y="-65" width="170" height="30" as="alternateBounds"/>
                    </mxGeometry>
                </mxCell>
                <mxCell id="82" value="msg_queue_id（消息队列ID）" style="text;strokeColor=#666666;fillColor=#f5f5f5;align=left;verticalAlign=middle;spacingLeft=4;spacingRight=4;overflow=hidden;points=[[0,0.5],[1,0.5]];portConstraint=eastwest;rotatable=0;fontSize=18;fontColor=#333333;" parent="81" vertex="1">
                    <mxGeometry y="30" width="550" height="30" as="geometry"/>
                </mxCell>
                <mxCell id="83" value="comm_fd（同服务端通信的文件描述符）" style="text;strokeColor=#666666;fillColor=#f5f5f5;align=left;verticalAlign=middle;spacingLeft=4;spacingRight=4;overflow=hidden;points=[[0,0.5],[1,0.5]];portConstraint=eastwest;rotatable=0;fontSize=18;fontColor=#333333;" parent="81" vertex="1">
                    <mxGeometry y="60" width="550" height="30" as="geometry"/>
                </mxCell>
                <mxCell id="84" value="connect_flag（连接并接受服务端数据线程标志）" style="text;strokeColor=#666666;fillColor=#f5f5f5;align=left;verticalAlign=middle;spacingLeft=4;spacingRight=4;overflow=hidden;points=[[0,0.5],[1,0.5]];portConstraint=eastwest;rotatable=0;fontSize=18;fontColor=#333333;" parent="81" vertex="1">
                    <mxGeometry y="90" width="550" height="30" as="geometry"/>
                </mxCell>
                <mxCell id="85" value="keep_flag（保持与服务端心跳线程的标志）" style="text;strokeColor=#666666;fillColor=#f5f5f5;align=left;verticalAlign=middle;spacingLeft=4;spacingRight=4;overflow=hidden;points=[[0,0.5],[1,0.5]];portConstraint=eastwest;rotatable=0;fontSize=18;fontColor=#333333;" parent="81" vertex="1">
                    <mxGeometry y="120" width="550" height="30" as="geometry"/>
                </mxCell>
                <mxCell id="86" value="commit_flag（上报消息队列线程标志）" style="text;strokeColor=#666666;fillColor=#f5f5f5;align=left;verticalAlign=middle;spacingLeft=4;spacingRight=4;overflow=hidden;points=[[0,0.5],[1,0.5]];portConstraint=eastwest;rotatable=0;fontSize=18;fontColor=#333333;" parent="81" vertex="1">
                    <mxGeometry y="150" width="550" height="30" as="geometry"/>
                </mxCell>
                <mxCell id="87" value="connect_tid（连接并接受服务端数据线程ID）" style="text;strokeColor=#666666;fillColor=#f5f5f5;align=left;verticalAlign=middle;spacingLeft=4;spacingRight=4;overflow=hidden;points=[[0,0.5],[1,0.5]];portConstraint=eastwest;rotatable=0;fontSize=18;fontColor=#333333;" parent="81" vertex="1">
                    <mxGeometry y="180" width="550" height="30" as="geometry"/>
                </mxCell>
                <mxCell id="88" value="keep_tid（保持与服务端心跳线程的ID）" style="text;strokeColor=#666666;fillColor=#f5f5f5;align=left;verticalAlign=middle;spacingLeft=4;spacingRight=4;overflow=hidden;points=[[0,0.5],[1,0.5]];portConstraint=eastwest;rotatable=0;fontSize=18;fontColor=#333333;" parent="81" vertex="1">
                    <mxGeometry y="210" width="550" height="30" as="geometry"/>
                </mxCell>
                <mxCell id="89" value="commit_tid（上报消息队列线程ID）" style="text;strokeColor=#666666;fillColor=#f5f5f5;align=left;verticalAlign=middle;spacingLeft=4;spacingRight=4;overflow=hidden;points=[[0,0.5],[1,0.5]];portConstraint=eastwest;rotatable=0;fontSize=18;fontColor=#333333;" parent="81" vertex="1">
                    <mxGeometry y="240" width="550" height="30" as="geometry"/>
                </mxCell>
                <mxCell id="90" value="c_fifo（存储服务端发送的数据的环形缓存区）" style="text;strokeColor=#666666;fillColor=#f5f5f5;align=left;verticalAlign=middle;spacingLeft=4;spacingRight=4;overflow=hidden;points=[[0,0.5],[1,0.5]];portConstraint=eastwest;rotatable=0;fontSize=18;fontColor=#333333;" parent="81" vertex="1">
                    <mxGeometry y="270" width="550" height="30" as="geometry"/>
                </mxCell>
                <mxCell id="91" value="serve_addr（存放需绑定的服务器IP和端口）" style="text;strokeColor=#666666;fillColor=#f5f5f5;align=left;verticalAlign=middle;spacingLeft=4;spacingRight=4;overflow=hidden;points=[[0,0.5],[1,0.5]];portConstraint=eastwest;rotatable=0;fontSize=18;fontColor=#333333;" parent="81" vertex="1">
                    <mxGeometry y="300" width="550" height="30" as="geometry"/>
                </mxCell>
                <mxCell id="92" value="keep_last_time（上一次服务器的心跳时间戳）" style="text;strokeColor=#666666;fillColor=#f5f5f5;align=left;verticalAlign=middle;spacingLeft=4;spacingRight=4;overflow=hidden;points=[[0,0.5],[1,0.5]];portConstraint=eastwest;rotatable=0;fontSize=18;fontColor=#333333;" parent="81" vertex="1">
                    <mxGeometry y="330" width="550" height="30" as="geometry"/>
                </mxCell>
                <mxCell id="93" value="client_fds（存放客户端需要监听的文件描述符，如服务端socket）" style="text;strokeColor=#666666;fillColor=#f5f5f5;align=left;verticalAlign=middle;spacingLeft=4;spacingRight=4;overflow=hidden;points=[[0,0.5],[1,0.5]];portConstraint=eastwest;rotatable=0;fontSize=18;fontColor=#333333;" parent="81" vertex="1">
                    <mxGeometry y="360" width="550" height="30" as="geometry"/>
                </mxCell>
                <mxCell id="129" value="hip（hip网络协议封装）" style="text;strokeColor=#666666;fillColor=#f5f5f5;align=left;verticalAlign=middle;spacingLeft=4;spacingRight=4;overflow=hidden;points=[[0,0.5],[1,0.5]];portConstraint=eastwest;rotatable=0;fontSize=18;fontColor=#333333;" parent="81" vertex="1">
                    <mxGeometry y="390" width="550" height="30" as="geometry"/>
                </mxCell>
                <mxCell id="128" value="alive_flag（心跳检测标志）" style="text;strokeColor=#666666;fillColor=#f5f5f5;align=left;verticalAlign=middle;spacingLeft=4;spacingRight=4;overflow=hidden;points=[[0,0.5],[1,0.5]];portConstraint=eastwest;rotatable=0;fontSize=18;fontColor=#333333;" parent="81" vertex="1">
                    <mxGeometry y="420" width="550" height="30" as="geometry"/>
                </mxCell>
                <mxCell id="127" value="alive_timer（心跳定时器id）" style="text;strokeColor=#666666;fillColor=#f5f5f5;align=left;verticalAlign=middle;spacingLeft=4;spacingRight=4;overflow=hidden;points=[[0,0.5],[1,0.5]];portConstraint=eastwest;rotatable=0;fontSize=18;fontColor=#333333;" parent="81" vertex="1">
                    <mxGeometry y="450" width="550" height="30" as="geometry"/>
                </mxCell>
                <mxCell id="94" value="Linux网络编程 客户端思路" style="text;html=1;strokeColor=#666666;fillColor=#f5f5f5;align=center;verticalAlign=middle;whiteSpace=wrap;rounded=0;fontSize=21;fontStyle=1;fontColor=#333333;" parent="1" vertex="1">
                    <mxGeometry x="1552" y="-784" width="300" height="70" as="geometry"/>
                </mxCell>
                <mxCell id="104" value="" style="endArrow=none;html=1;entryX=0.994;entryY=1;entryDx=0;entryDy=0;entryPerimeter=0;strokeWidth=2;exitX=0;exitY=1;exitDx=0;exitDy=0;fillColor=#f5f5f5;strokeColor=#666666;" parent="1" source="106" target="103" edge="1">
                    <mxGeometry width="50" height="50" relative="1" as="geometry">
                        <mxPoint x="481" y="226" as="sourcePoint"/>
                        <mxPoint x="620" y="89" as="targetPoint"/>
                    </mxGeometry>
                </mxCell>
                <mxCell id="105" value="" style="endArrow=none;html=1;strokeWidth=2;entryX=0.998;entryY=-0.02;entryDx=0;entryDy=0;entryPerimeter=0;exitX=0.001;exitY=0.091;exitDx=0;exitDy=0;exitPerimeter=0;fillColor=#f5f5f5;strokeColor=#666666;" parent="1" source="106" target="103" edge="1">
                    <mxGeometry width="50" height="50" relative="1" as="geometry">
                        <mxPoint x="474" y="134" as="sourcePoint"/>
                        <mxPoint x="324" y="145" as="targetPoint"/>
                    </mxGeometry>
                </mxCell>
                <mxCell id="106" value="结构体 hip" style="swimlane;fontStyle=0;childLayout=stackLayout;horizontal=1;startSize=30;horizontalStack=0;resizeParent=1;resizeParentMax=0;resizeLast=0;collapsible=1;marginBottom=0;fontSize=18;strokeWidth=2;fillColor=#f5f5f5;strokeColor=#666666;fontColor=#333333;" parent="1" vertex="1">
                    <mxGeometry x="432" y="-13" width="294" height="210" as="geometry">
                        <mxRectangle x="127" y="70" width="221" height="30" as="alternateBounds"/>
                    </mxGeometry>
                </mxCell>
                <mxCell id="107" value="state（hip解析状态机）" style="text;strokeColor=#666666;fillColor=#f5f5f5;align=left;verticalAlign=middle;spacingLeft=4;spacingRight=4;overflow=hidden;points=[[0,0.5],[1,0.5]];portConstraint=eastwest;rotatable=0;fontSize=18;fontColor=#333333;" parent="106" vertex="1">
                    <mxGeometry y="30" width="294" height="30" as="geometry"/>
                </mxCell>
                <mxCell id="108" value="read_len（hip状态机解析数据长度）" style="text;strokeColor=#666666;fillColor=#f5f5f5;align=left;verticalAlign=middle;spacingLeft=4;spacingRight=4;overflow=hidden;points=[[0,0.5],[1,0.5]];portConstraint=eastwest;rotatable=0;fontSize=18;fontColor=#333333;" parent="106" vertex="1">
                    <mxGeometry y="60" width="294" height="30" as="geometry"/>
                </mxCell>
                <mxCell id="109" value="dev_type（设备类型）" style="text;strokeColor=#666666;fillColor=#f5f5f5;align=left;verticalAlign=middle;spacingLeft=4;spacingRight=4;overflow=hidden;points=[[0,0.5],[1,0.5]];portConstraint=eastwest;rotatable=0;fontSize=18;fontColor=#333333;" parent="106" vertex="1">
                    <mxGeometry y="90" width="294" height="30" as="geometry"/>
                </mxCell>
                <mxCell id="110" value="dev_id（设备的id）" style="text;strokeColor=#666666;fillColor=#f5f5f5;align=left;verticalAlign=middle;spacingLeft=4;spacingRight=4;overflow=hidden;points=[[0,0.5],[1,0.5]];portConstraint=eastwest;rotatable=0;fontSize=18;fontColor=#333333;" parent="106" vertex="1">
                    <mxGeometry y="120" width="294" height="30" as="geometry"/>
                </mxCell>
                <mxCell id="111" value="cur_seq（当前序列号）" style="text;strokeColor=#666666;fillColor=#f5f5f5;align=left;verticalAlign=middle;spacingLeft=4;spacingRight=4;overflow=hidden;points=[[0,0.5],[1,0.5]];portConstraint=eastwest;rotatable=0;fontSize=18;fontColor=#333333;" parent="106" vertex="1">
                    <mxGeometry y="150" width="294" height="30" as="geometry"/>
                </mxCell>
                <mxCell id="112" value="hip_frame（hip帧结构）" style="text;strokeColor=#666666;fillColor=#f5f5f5;align=left;verticalAlign=middle;spacingLeft=4;spacingRight=4;overflow=hidden;points=[[0,0.5],[1,0.5]];portConstraint=eastwest;rotatable=0;fontSize=18;fontColor=#333333;" parent="106" vertex="1">
                    <mxGeometry y="180" width="294" height="30" as="geometry"/>
                </mxCell>
                <mxCell id="116" value="结构体 hip_frame" style="swimlane;fontStyle=0;childLayout=stackLayout;horizontal=1;startSize=30;horizontalStack=0;resizeParent=1;resizeParentMax=0;resizeLast=0;collapsible=1;marginBottom=0;fontSize=18;strokeWidth=2;fillColor=#f5f5f5;strokeColor=#666666;fontColor=#333333;" parent="1" vertex="1">
                    <mxGeometry x="755" y="-47" width="360" height="240" as="geometry">
                        <mxRectangle x="127" y="70" width="221" height="30" as="alternateBounds"/>
                    </mxGeometry>
                </mxCell>
                <mxCell id="117" value="version（hip版本号）" style="text;strokeColor=#666666;fillColor=#f5f5f5;align=left;verticalAlign=middle;spacingLeft=4;spacingRight=4;overflow=hidden;points=[[0,0.5],[1,0.5]];portConstraint=eastwest;rotatable=0;fontSize=18;fontColor=#333333;" parent="116" vertex="1">
                    <mxGeometry y="30" width="360" height="30" as="geometry"/>
                </mxCell>
                <mxCell id="118" value="commmand（hip帧的命令）" style="text;strokeColor=#666666;fillColor=#f5f5f5;align=left;verticalAlign=middle;spacingLeft=4;spacingRight=4;overflow=hidden;points=[[0,0.5],[1,0.5]];portConstraint=eastwest;rotatable=0;fontSize=18;fontColor=#333333;" parent="116" vertex="1">
                    <mxGeometry y="60" width="360" height="30" as="geometry"/>
                </mxCell>
                <mxCell id="119" value="length（hip帧的负载数据长度）" style="text;strokeColor=#666666;fillColor=#f5f5f5;align=left;verticalAlign=middle;spacingLeft=4;spacingRight=4;overflow=hidden;points=[[0,0.5],[1,0.5]];portConstraint=eastwest;rotatable=0;fontSize=18;fontColor=#333333;" parent="116" vertex="1">
                    <mxGeometry y="90" width="360" height="30" as="geometry"/>
                </mxCell>
                <mxCell id="120" value="device_type（hip帧发送者的设备类型）" style="text;strokeColor=#666666;fillColor=#f5f5f5;align=left;verticalAlign=middle;spacingLeft=4;spacingRight=4;overflow=hidden;points=[[0,0.5],[1,0.5]];portConstraint=eastwest;rotatable=0;fontSize=18;fontColor=#333333;" parent="116" vertex="1">
                    <mxGeometry y="120" width="360" height="30" as="geometry"/>
                </mxCell>
                <mxCell id="126" value="device_id（hip帧发送者的设备id）" style="text;strokeColor=#666666;fillColor=#f5f5f5;align=left;verticalAlign=middle;spacingLeft=4;spacingRight=4;overflow=hidden;points=[[0,0.5],[1,0.5]];portConstraint=eastwest;rotatable=0;fontSize=18;fontColor=#333333;" parent="116" vertex="1">
                    <mxGeometry y="150" width="360" height="30" as="geometry"/>
                </mxCell>
                <mxCell id="121" value="seq（hip帧的序列号）" style="text;strokeColor=#666666;fillColor=#f5f5f5;align=left;verticalAlign=middle;spacingLeft=4;spacingRight=4;overflow=hidden;points=[[0,0.5],[1,0.5]];portConstraint=eastwest;rotatable=0;fontSize=18;fontColor=#333333;" parent="116" vertex="1">
                    <mxGeometry y="180" width="360" height="30" as="geometry"/>
                </mxCell>
                <mxCell id="122" value="payload（hip帧的负载数据）" style="text;strokeColor=#666666;fillColor=#f5f5f5;align=left;verticalAlign=middle;spacingLeft=4;spacingRight=4;overflow=hidden;points=[[0,0.5],[1,0.5]];portConstraint=eastwest;rotatable=0;fontSize=18;fontColor=#333333;" parent="116" vertex="1">
                    <mxGeometry y="210" width="360" height="30" as="geometry"/>
                </mxCell>
                <mxCell id="123" value="" style="endArrow=none;html=1;strokeWidth=2;entryX=0;entryY=1;entryDx=0;entryDy=0;exitX=0.995;exitY=0.976;exitDx=0;exitDy=0;exitPerimeter=0;fillColor=#f5f5f5;strokeColor=#666666;" parent="1" source="112" target="116" edge="1">
                    <mxGeometry width="50" height="50" relative="1" as="geometry">
                        <mxPoint x="829" y="198" as="sourcePoint"/>
                        <mxPoint x="444.27999999999975" y="184.4000000000001" as="targetPoint"/>
                    </mxGeometry>
                </mxCell>
                <mxCell id="124" value="" style="endArrow=none;html=1;strokeWidth=2;entryX=1.005;entryY=0.035;entryDx=0;entryDy=0;entryPerimeter=0;exitX=0.005;exitY=-0.078;exitDx=0;exitDy=0;exitPerimeter=0;fillColor=#f5f5f5;strokeColor=#666666;" parent="1" source="117" target="112" edge="1">
                    <mxGeometry width="50" height="50" relative="1" as="geometry">
                        <mxPoint x="687" y="294" as="sourcePoint"/>
                        <mxPoint x="454.27999999999975" y="194.4000000000001" as="targetPoint"/>
                    </mxGeometry>
                </mxCell>
                <mxCell id="130" value="结构体 tcp_client" style="swimlane;fontStyle=0;childLayout=stackLayout;horizontal=1;startSize=30;horizontalStack=0;resizeParent=1;resizeParentMax=0;resizeLast=0;collapsible=1;marginBottom=0;fontSize=18;strokeWidth=2;fillColor=#f5f5f5;fontColor=#333333;strokeColor=#666666;" vertex="1" parent="1">
                    <mxGeometry x="958" y="-762" width="550" height="450" as="geometry">
                        <mxRectangle x="-474" y="-65" width="170" height="30" as="alternateBounds"/>
                    </mxGeometry>
                </mxCell>
                <mxCell id="131" value="msg_queue_id（消息队列ID）" style="text;strokeColor=#666666;fillColor=#f5f5f5;align=left;verticalAlign=middle;spacingLeft=4;spacingRight=4;overflow=hidden;points=[[0,0.5],[1,0.5]];portConstraint=eastwest;rotatable=0;fontSize=18;fontColor=#333333;" vertex="1" parent="130">
                    <mxGeometry y="30" width="550" height="30" as="geometry"/>
                </mxCell>
                <mxCell id="132" value="comm_fd（同服务端通信的文件描述符）" style="text;strokeColor=#666666;fillColor=#f5f5f5;align=left;verticalAlign=middle;spacingLeft=4;spacingRight=4;overflow=hidden;points=[[0,0.5],[1,0.5]];portConstraint=eastwest;rotatable=0;fontSize=18;fontColor=#333333;" vertex="1" parent="130">
                    <mxGeometry y="60" width="550" height="30" as="geometry"/>
                </mxCell>
                <mxCell id="164" value="server_in_fd（服务端中保存客户端的文件描述符）" style="text;strokeColor=#666666;fillColor=#f5f5f5;align=left;verticalAlign=middle;spacingLeft=4;spacingRight=4;overflow=hidden;points=[[0,0.5],[1,0.5]];portConstraint=eastwest;rotatable=0;fontSize=18;fontColor=#333333;" vertex="1" parent="130">
                    <mxGeometry y="90" width="550" height="30" as="geometry"/>
                </mxCell>
                <mxCell id="133" value="connect_flag（连接并接受服务端数据线程标志）" style="text;strokeColor=#666666;fillColor=#f5f5f5;align=left;verticalAlign=middle;spacingLeft=4;spacingRight=4;overflow=hidden;points=[[0,0.5],[1,0.5]];portConstraint=eastwest;rotatable=0;fontSize=18;fontColor=#333333;" vertex="1" parent="130">
                    <mxGeometry y="120" width="550" height="30" as="geometry"/>
                </mxCell>
                <mxCell id="134" value="keep_flag（保持与服务端心跳线程的标志）" style="text;strokeColor=#666666;fillColor=#f5f5f5;align=left;verticalAlign=middle;spacingLeft=4;spacingRight=4;overflow=hidden;points=[[0,0.5],[1,0.5]];portConstraint=eastwest;rotatable=0;fontSize=18;fontColor=#333333;" vertex="1" parent="130">
                    <mxGeometry y="150" width="550" height="30" as="geometry"/>
                </mxCell>
                <mxCell id="135" value="commit_flag（上报消息队列线程标志）" style="text;strokeColor=#666666;fillColor=#f5f5f5;align=left;verticalAlign=middle;spacingLeft=4;spacingRight=4;overflow=hidden;points=[[0,0.5],[1,0.5]];portConstraint=eastwest;rotatable=0;fontSize=18;fontColor=#333333;" vertex="1" parent="130">
                    <mxGeometry y="180" width="550" height="30" as="geometry"/>
                </mxCell>
                <mxCell id="136" value="connect_tid（连接并接受服务端数据线程ID）" style="text;strokeColor=#666666;fillColor=#f5f5f5;align=left;verticalAlign=middle;spacingLeft=4;spacingRight=4;overflow=hidden;points=[[0,0.5],[1,0.5]];portConstraint=eastwest;rotatable=0;fontSize=18;fontColor=#333333;" vertex="1" parent="130">
                    <mxGeometry y="210" width="550" height="30" as="geometry"/>
                </mxCell>
                <mxCell id="137" value="keep_tid（保持与服务端心跳线程的ID）" style="text;strokeColor=#666666;fillColor=#f5f5f5;align=left;verticalAlign=middle;spacingLeft=4;spacingRight=4;overflow=hidden;points=[[0,0.5],[1,0.5]];portConstraint=eastwest;rotatable=0;fontSize=18;fontColor=#333333;" vertex="1" parent="130">
                    <mxGeometry y="240" width="550" height="30" as="geometry"/>
                </mxCell>
                <mxCell id="138" value="commit_tid（上报消息队列线程ID）" style="text;strokeColor=#666666;fillColor=#f5f5f5;align=left;verticalAlign=middle;spacingLeft=4;spacingRight=4;overflow=hidden;points=[[0,0.5],[1,0.5]];portConstraint=eastwest;rotatable=0;fontSize=18;fontColor=#333333;" vertex="1" parent="130">
                    <mxGeometry y="270" width="550" height="30" as="geometry"/>
                </mxCell>
                <mxCell id="139" value="c_fifo（存储服务端发送的数据的环形缓存区）" style="text;strokeColor=#666666;fillColor=#f5f5f5;align=left;verticalAlign=middle;spacingLeft=4;spacingRight=4;overflow=hidden;points=[[0,0.5],[1,0.5]];portConstraint=eastwest;rotatable=0;fontSize=18;fontColor=#333333;" vertex="1" parent="130">
                    <mxGeometry y="300" width="550" height="30" as="geometry"/>
                </mxCell>
                <mxCell id="140" value="serve_addr（存放需绑定的服务器IP和端口）" style="text;strokeColor=#666666;fillColor=#f5f5f5;align=left;verticalAlign=middle;spacingLeft=4;spacingRight=4;overflow=hidden;points=[[0,0.5],[1,0.5]];portConstraint=eastwest;rotatable=0;fontSize=18;fontColor=#333333;" vertex="1" parent="130">
                    <mxGeometry y="330" width="550" height="30" as="geometry"/>
                </mxCell>
                <mxCell id="141" value="keep_last_time（上一次服务器的心跳时间戳）" style="text;strokeColor=#666666;fillColor=#f5f5f5;align=left;verticalAlign=middle;spacingLeft=4;spacingRight=4;overflow=hidden;points=[[0,0.5],[1,0.5]];portConstraint=eastwest;rotatable=0;fontSize=18;fontColor=#333333;" vertex="1" parent="130">
                    <mxGeometry y="360" width="550" height="30" as="geometry"/>
                </mxCell>
                <mxCell id="142" value="client_fds（存放客户端需要监听的文件描述符，如服务端socket）" style="text;strokeColor=#666666;fillColor=#f5f5f5;align=left;verticalAlign=middle;spacingLeft=4;spacingRight=4;overflow=hidden;points=[[0,0.5],[1,0.5]];portConstraint=eastwest;rotatable=0;fontSize=18;fontColor=#333333;" vertex="1" parent="130">
                    <mxGeometry y="390" width="550" height="30" as="geometry"/>
                </mxCell>
                <mxCell id="143" value="hip（hip网络协议封装）" style="text;strokeColor=#666666;fillColor=#f5f5f5;align=left;verticalAlign=middle;spacingLeft=4;spacingRight=4;overflow=hidden;points=[[0,0.5],[1,0.5]];portConstraint=eastwest;rotatable=0;fontSize=18;fontColor=#333333;" vertex="1" parent="130">
                    <mxGeometry y="420" width="550" height="30" as="geometry"/>
                </mxCell>
                <mxCell id="144" value="结构体 hip" style="swimlane;fontStyle=0;childLayout=stackLayout;horizontal=1;startSize=30;horizontalStack=0;resizeParent=1;resizeParentMax=0;resizeLast=0;collapsible=1;marginBottom=0;fontSize=18;strokeWidth=2;fillColor=#f5f5f5;fontColor=#333333;strokeColor=#666666;" vertex="1" parent="1">
                    <mxGeometry x="1566" y="-554" width="320" height="210" as="geometry">
                        <mxRectangle x="127" y="70" width="221" height="30" as="alternateBounds"/>
                    </mxGeometry>
                </mxCell>
                <mxCell id="145" value="state（hip解析状态机解析）" style="text;strokeColor=#666666;fillColor=#f5f5f5;align=left;verticalAlign=middle;spacingLeft=4;spacingRight=4;overflow=hidden;points=[[0,0.5],[1,0.5]];portConstraint=eastwest;rotatable=0;fontSize=18;fontColor=#333333;" vertex="1" parent="144">
                    <mxGeometry y="30" width="320" height="30" as="geometry"/>
                </mxCell>
                <mxCell id="146" value="read_len（hip状态机解析数据长度）" style="text;strokeColor=#666666;fillColor=#f5f5f5;align=left;verticalAlign=middle;spacingLeft=4;spacingRight=4;overflow=hidden;points=[[0,0.5],[1,0.5]];portConstraint=eastwest;rotatable=0;fontSize=18;fontColor=#333333;" vertex="1" parent="144">
                    <mxGeometry y="60" width="320" height="30" as="geometry"/>
                </mxCell>
                <mxCell id="147" value="dev_type（设备的类型，tx，rx)" style="text;strokeColor=#666666;fillColor=#f5f5f5;align=left;verticalAlign=middle;spacingLeft=4;spacingRight=4;overflow=hidden;points=[[0,0.5],[1,0.5]];portConstraint=eastwest;rotatable=0;fontSize=18;fontColor=#333333;" vertex="1" parent="144">
                    <mxGeometry y="90" width="320" height="30" as="geometry"/>
                </mxCell>
                <mxCell id="148" value="dev_id（设备的id）" style="text;strokeColor=#666666;fillColor=#f5f5f5;align=left;verticalAlign=middle;spacingLeft=4;spacingRight=4;overflow=hidden;points=[[0,0.5],[1,0.5]];portConstraint=eastwest;rotatable=0;fontSize=18;fontColor=#333333;" vertex="1" parent="144">
                    <mxGeometry y="120" width="320" height="30" as="geometry"/>
                </mxCell>
                <mxCell id="149" value="cur_seq（当前序列号）" style="text;strokeColor=#666666;fillColor=#f5f5f5;align=left;verticalAlign=middle;spacingLeft=4;spacingRight=4;overflow=hidden;points=[[0,0.5],[1,0.5]];portConstraint=eastwest;rotatable=0;fontSize=18;fontColor=#333333;" vertex="1" parent="144">
                    <mxGeometry y="150" width="320" height="30" as="geometry"/>
                </mxCell>
                <mxCell id="150" value="hip_frame（hip帧结构）" style="text;strokeColor=#666666;fillColor=#f5f5f5;align=left;verticalAlign=middle;spacingLeft=4;spacingRight=4;overflow=hidden;points=[[0,0.5],[1,0.5]];portConstraint=eastwest;rotatable=0;fontSize=18;fontColor=#333333;" vertex="1" parent="144">
                    <mxGeometry y="180" width="320" height="30" as="geometry"/>
                </mxCell>
                <mxCell id="151" value="" style="endArrow=none;html=1;strokeWidth=2;exitX=1.001;exitY=1.033;exitDx=0;exitDy=0;exitPerimeter=0;entryX=0.013;entryY=1;entryDx=0;entryDy=0;entryPerimeter=0;fillColor=#f5f5f5;strokeColor=#666666;fontColor=#000000;" edge="1" parent="1" source="150" target="160">
                    <mxGeometry width="50" height="50" relative="1" as="geometry">
                        <mxPoint x="1678" y="-322" as="sourcePoint"/>
                        <mxPoint x="1940" y="-294" as="targetPoint"/>
                    </mxGeometry>
                </mxCell>
                <mxCell id="152" value="" style="endArrow=none;html=1;strokeWidth=2;entryX=1.004;entryY=-0.025;entryDx=0;entryDy=0;entryPerimeter=0;exitX=0.001;exitY=0.139;exitDx=0;exitDy=0;exitPerimeter=0;fillColor=#f5f5f5;strokeColor=#666666;fontColor=#000000;" edge="1" parent="1" source="153" target="150">
                    <mxGeometry width="50" height="50" relative="1" as="geometry">
                        <mxPoint x="1945" y="-395" as="sourcePoint"/>
                        <mxPoint x="1728" y="-372" as="targetPoint"/>
                    </mxGeometry>
                </mxCell>
                <mxCell id="153" value="结构体 hip_frame" style="swimlane;fontStyle=0;childLayout=stackLayout;horizontal=1;startSize=30;horizontalStack=0;resizeParent=1;resizeParentMax=0;resizeLast=0;collapsible=1;marginBottom=0;fontSize=18;strokeWidth=2;fillColor=#f5f5f5;fontColor=#333333;strokeColor=#666666;" vertex="1" parent="1">
                    <mxGeometry x="1941" y="-578" width="320" height="240" as="geometry">
                        <mxRectangle x="127" y="70" width="221" height="30" as="alternateBounds"/>
                    </mxGeometry>
                </mxCell>
                <mxCell id="154" value="version（hip版本）" style="text;strokeColor=#666666;fillColor=#f5f5f5;align=left;verticalAlign=middle;spacingLeft=4;spacingRight=4;overflow=hidden;points=[[0,0.5],[1,0.5]];portConstraint=eastwest;rotatable=0;fontSize=18;fontColor=#333333;" vertex="1" parent="153">
                    <mxGeometry y="30" width="320" height="30" as="geometry"/>
                </mxCell>
                <mxCell id="155" value="command（hip帧的命令）" style="text;strokeColor=#666666;fillColor=#f5f5f5;align=left;verticalAlign=middle;spacingLeft=4;spacingRight=4;overflow=hidden;points=[[0,0.5],[1,0.5]];portConstraint=eastwest;rotatable=0;fontSize=18;fontColor=#333333;" vertex="1" parent="153">
                    <mxGeometry y="60" width="320" height="30" as="geometry"/>
                </mxCell>
                <mxCell id="156" value="length（hip帧的负载数据长度）" style="text;strokeColor=#666666;fillColor=#f5f5f5;align=left;verticalAlign=middle;spacingLeft=4;spacingRight=4;overflow=hidden;points=[[0,0.5],[1,0.5]];portConstraint=eastwest;rotatable=0;fontSize=18;fontColor=#333333;" vertex="1" parent="153">
                    <mxGeometry y="90" width="320" height="30" as="geometry"/>
                </mxCell>
                <mxCell id="157" value="device_type（hip帧发送者的设备型号）" style="text;strokeColor=#666666;fillColor=#f5f5f5;align=left;verticalAlign=middle;spacingLeft=4;spacingRight=4;overflow=hidden;points=[[0,0.5],[1,0.5]];portConstraint=eastwest;rotatable=0;fontSize=18;fontColor=#333333;" vertex="1" parent="153">
                    <mxGeometry y="120" width="320" height="30" as="geometry"/>
                </mxCell>
                <mxCell id="158" value="decive_id（hip帧发送者的设备id）" style="text;strokeColor=#666666;fillColor=#f5f5f5;align=left;verticalAlign=middle;spacingLeft=4;spacingRight=4;overflow=hidden;points=[[0,0.5],[1,0.5]];portConstraint=eastwest;rotatable=0;fontSize=18;fontColor=#333333;" vertex="1" parent="153">
                    <mxGeometry y="150" width="320" height="30" as="geometry"/>
                </mxCell>
                <mxCell id="159" value="seq（hip帧的序列号）" style="text;strokeColor=#666666;fillColor=#f5f5f5;align=left;verticalAlign=middle;spacingLeft=4;spacingRight=4;overflow=hidden;points=[[0,0.5],[1,0.5]];portConstraint=eastwest;rotatable=0;fontSize=18;fontColor=#333333;" vertex="1" parent="153">
                    <mxGeometry y="180" width="320" height="30" as="geometry"/>
                </mxCell>
                <mxCell id="160" value="payload（hip帧的负载数据）" style="text;strokeColor=#666666;fillColor=#f5f5f5;align=left;verticalAlign=middle;spacingLeft=4;spacingRight=4;overflow=hidden;points=[[0,0.5],[1,0.5]];portConstraint=eastwest;rotatable=0;fontSize=18;fontColor=#333333;" vertex="1" parent="153">
                    <mxGeometry y="210" width="320" height="30" as="geometry"/>
                </mxCell>
                <mxCell id="161" value="" style="endArrow=none;html=1;strokeWidth=2;exitX=0.995;exitY=1.008;exitDx=0;exitDy=0;exitPerimeter=0;entryX=0.004;entryY=0.944;entryDx=0;entryDy=0;entryPerimeter=0;fillColor=#f5f5f5;strokeColor=#666666;fontColor=#000000;" edge="1" parent="1" source="143" target="150">
                    <mxGeometry width="50" height="50" relative="1" as="geometry">
                        <mxPoint x="1896.3199999999997" y="-333.01" as="sourcePoint"/>
                        <mxPoint x="1556" y="-323" as="targetPoint"/>
                    </mxGeometry>
                </mxCell>
                <mxCell id="162" value="" style="endArrow=none;html=1;strokeWidth=2;exitX=-0.003;exitY=0.075;exitDx=0;exitDy=0;exitPerimeter=0;entryX=1.001;entryY=0.027;entryDx=0;entryDy=0;entryPerimeter=0;fillColor=#f5f5f5;strokeColor=#666666;fontColor=#000000;" edge="1" parent="1" source="145" target="143">
                    <mxGeometry width="50" height="50" relative="1" as="geometry">
                        <mxPoint x="1906.3199999999997" y="-323.01" as="sourcePoint"/>
                        <mxPoint x="1517" y="-375" as="targetPoint"/>
                    </mxGeometry>
                </mxCell>
            </root>
        </mxGraphModel>
    </diagram>
</mxfile>